<svg width="132" height="81" viewBox="0 0 132 81" fill="none" xmlns="http://www.w3.org/2000/svg">
<path d="M36.4723 1.91129C36.4491 1.86821 36.406 1.83507 36.3828 1.79199C36.4093 1.83507 36.4491 1.86821 36.4723 1.91129Z" fill="black"/>
<path d="M37.3988 41.0562L37.3789 59.6408L55.6156 47.9757C58.7771 45.9542 62.3429 44.8274 65.9584 44.569H65.9948C69.6103 44.8308 73.1762 45.9542 76.3377 47.9757L94.5743 59.6408L94.5544 41.0562L93.2487 40.2973L78.273 31.6711C74.5316 29.517 70.303 28.261 65.975 28.0059C61.6469 28.261 57.4183 29.517 53.6769 31.6711L38.7012 40.2973L37.3955 41.0562H37.3988Z" fill="black"/>
<path d="M104.4 78.6861L112.204 73.7086L96.9371 63.9424L96.947 73.4435C96.947 76.6182 94.8924 79.3191 92.0391 80.3033C96.1252 81.5759 100.672 81.0589 104.4 78.6861Z" fill="black"/>
<path d="M126.011 64.9033C127.459 63.9787 128.662 62.7857 129.586 61.4137L96.9141 42.4248L96.9339 61.1486L114.339 72.2835C114.296 72.3266 114.263 72.3796 114.223 72.426L126.011 64.9099V64.9033Z" fill="black"/>
<path d="M94.5924 73.4467L94.5825 62.4378L75.0733 49.9575C72.2929 48.1779 69.1612 47.1737 65.9798 46.9219C62.7984 47.1737 59.67 48.1812 56.8863 49.9575L37.3771 62.4378L37.3672 73.4467C37.3672 76.479 39.9222 78.3547 42.2917 78.3547C43.3389 78.3547 44.3497 78.01 45.2146 77.3572C45.2908 77.2975 45.377 77.2544 45.4598 77.218L59.395 66.6995C61.1812 65.3507 63.4778 64.4891 65.9599 64.224H65.9964C68.4785 64.4891 70.7751 65.3507 72.5613 66.6995L86.4964 77.218C86.5826 77.2544 86.6654 77.2975 86.7417 77.3572C87.6066 78.01 88.6174 78.358 89.6646 78.358C92.0307 78.358 94.5891 76.4823 94.5891 73.45L94.5924 73.4467Z" fill="black"/>
<path d="M35.0472 42.4246L2.375 61.4135C3.29959 62.7855 4.50255 63.9785 5.95075 64.9031L17.7385 72.4191C17.6987 72.3727 17.6655 72.3197 17.6225 72.2766L35.0273 61.1418L35.0472 42.418V42.4246Z" fill="black"/>
<path d="M35.0451 39.7003L35.0683 16.9998V5.50368C35.0683 3.76717 34.1703 2.21625 32.6657 1.35131C31.1612 0.486372 29.3683 0.489676 27.8671 1.36124L4.15253 15.144C1.76649 16.5325 0.285156 19.1074 0.285156 21.8646V54.5799C0.285156 56.2501 0.623179 57.8607 1.2462 59.3421L35.0418 39.7003H35.0451Z" fill="black"/>
<path d="M39.9154 80.3063C37.0654 79.322 35.0074 76.6212 35.0074 73.4464L35.0174 63.9453L19.75 73.7115L27.5543 78.6891C31.2792 81.0652 35.8293 81.5788 39.9154 80.3063Z" fill="black"/>
<path d="M131.67 54.577V21.8617C131.67 19.1012 130.189 16.5263 127.803 15.141L104.088 1.35831C102.587 0.486746 100.794 0.483443 99.2893 1.34838C97.7848 2.21332 96.8867 3.76755 96.8867 5.50075V16.9968L96.9099 39.6974L130.706 59.3391C131.329 57.8578 131.667 56.2439 131.667 54.577H131.67Z" fill="black"/>
</svg>
